<?xml version="1.0" ?><svg id="Layer_1" style="enable-background:new 0 0 512 512;" version="1.1" viewBox="0 0 512 512" xml:space="preserve" xmlns="http://www.w3.org/2000/svg" xmlns:xlink="http://www.w3.org/1999/xlink"><style type="text/css">
	.st0{fill:#FBD502;}
	.st1{fill:#E2B700;}
	.st2{fill:#F5A506;}
	.st3{fill:#F45753;}
	.st4{fill:#F4908C;}
	.st5{fill:#BF1925;}
	.st6{fill:#1F3444;}
	.st7{fill:#2E4356;}
	.st8{fill:#13283B;}
	.st9{fill:#BBBF1D;}
	.st10{fill:#CCE134;}
	.st11{fill:#97BE15;}
	.st12{fill:#60A093;}
	.st13{fill:#90C9C1;}
	.st14{fill:#3D7768;}
</style><g id="XMLID_1_"><g id="XMLID_726_"><polygon class="st0" id="XMLID_730_" points="220,24.5 220,421.7 220,421.7 256.9,438.6 293.8,421.7 293.8,421.7 293.8,24.5   "/><polygon class="st1" id="XMLID_729_" points="256.3,24.6 256.3,438.4 256.7,438.6 293.7,421.7 293.7,421.7 293.7,24.6   "/><g id="XMLID_727_"><polyline class="st2" id="XMLID_728_" points="256.9,6.1 220,24.5 256.9,43 293.8,24.5 256.9,6.1    "/></g></g><g id="XMLID_716_"><polygon class="st3" id="XMLID_720_" points="183,93.5 183,438.6 183,438.6 220,455.5 256.9,438.6 256.9,438.6 256.9,93.5   "/><polygon class="st4" id="XMLID_719_" points="219.6,93.5 183,93.5 183,438.6 183,438.6 219.6,455.3   "/><g id="XMLID_717_"><polyline class="st5" id="XMLID_718_" points="220,75.1 183,93.5 220,112 256.9,93.5 220,75.1    "/></g></g><g id="XMLID_13_"><polygon class="st3" id="XMLID_43_" points="256.9,93.5 256.9,438.6 256.9,438.6 293.8,455.5 330.7,438.6 330.7,438.6 330.7,93.5       "/><polygon class="st4" id="XMLID_42_" points="293.5,93.5 256.9,93.5 256.9,438.6 256.9,438.6 293.5,455.3   "/><g id="XMLID_40_"><polyline class="st5" id="XMLID_41_" points="293.8,75.1 256.9,93.5 293.8,112 330.7,93.5 293.8,75.1    "/></g></g><g id="XMLID_721_"><polygon class="st6" id="XMLID_725_" points="146.1,155 146.1,455.4 146.1,455.4 183,472.3 219.9,455.4 219.9,455.4 219.9,155       "/><polygon class="st7" id="XMLID_724_" points="182.6,155 146.1,155 146.1,455.4 146.1,455.4 182.6,472.1   "/><g id="XMLID_722_"><polyline class="st8" id="XMLID_723_" points="183,136.5 146.1,155 183,173.4 219.9,155 183,136.5    "/></g></g><g id="XMLID_44_"><polygon class="st6" id="XMLID_48_" points="293.5,154.8 293.5,455.3 293.5,455.3 330.4,472.2 367.3,455.3 367.3,455.3     367.3,154.8   "/><polygon class="st7" id="XMLID_47_" points="330,154.8 293.5,154.8 293.5,455.3 293.5,455.3 330,472   "/><g id="XMLID_45_"><polyline class="st8" id="XMLID_46_" points="330.4,136.4 293.5,154.8 330.4,173.3 367.3,154.8 330.4,136.4    "/></g></g><g id="XMLID_711_"><polygon class="st9" id="XMLID_715_" points="109.2,219.2 109.2,472.3 109.2,472.3 146.1,489.2 183,472.3 183,472.3 183,219.2       "/><polygon class="st10" id="XMLID_714_" points="146.1,219.2 109.2,219.2 109.2,472.7 109.2,472.7 146.1,488.8   "/><g id="XMLID_712_"><polyline class="st11" id="XMLID_713_" points="146.1,200.7 109.2,219.2 146.1,237.7 183,219.2 146.1,200.7    "/></g></g><g id="XMLID_49_"><polygon class="st9" id="XMLID_53_" points="330,218.5 330,471.7 330,471.7 366.9,488.5 403.9,471.7 403.9,471.7 403.9,218.5       "/><polygon class="st10" id="XMLID_52_" points="366.9,218.5 330,218.5 330,472 330,472 366.9,488.5   "/><g id="XMLID_50_"><polyline class="st11" id="XMLID_51_" points="366.9,200.1 330,218.5 366.9,237 403.9,218.5 366.9,200.1    "/></g></g><g id="XMLID_8_"><polygon class="st12" id="XMLID_12_" points="72.2,281 72.2,489.2 72.2,489.2 109.2,506.1 146.1,489.2 146.1,489.2 146.1,281       "/><polygon class="st13" id="XMLID_11_" points="108.8,281 72.2,281 72.2,489.2 72.2,489.2 108.8,505.9   "/><g id="XMLID_9_"><polyline class="st14" id="XMLID_10_" points="109.2,262.5 72.2,281 109.2,299.5 146.1,281 109.2,262.5    "/></g></g><g id="XMLID_54_"><polygon class="st12" id="XMLID_58_" points="366.9,280.4 366.9,488.5 366.9,488.5 403.9,505.4 440.8,488.5 440.8,488.5     440.8,280.4   "/><polygon class="st13" id="XMLID_57_" points="403.5,280.4 366.9,280.4 366.9,488.5 366.9,488.5 403.5,505.3   "/><g id="XMLID_55_"><polyline class="st14" id="XMLID_56_" points="403.9,261.9 366.9,280.4 403.9,298.8 440.8,280.4 403.9,261.9    "/></g></g></g></svg>